<mxfile host="Electron" modified="2023-11-08T05:38:39.792Z" agent="Mozilla/5.0 (Windows NT 10.0; Win64; x64) AppleWebKit/537.36 (KHTML, like Gecko) draw.io/21.7.5 Chrome/114.0.5735.289 Electron/25.8.1 Safari/537.36" etag="boKPGwn3CVvKXs8WMGrL" version="21.7.5" type="device">
  <diagram id="C5RBs43oDa-KdzZeNtuy" name="Page-1">
    <mxGraphModel dx="2298" dy="1136" grid="1" gridSize="10" guides="1" tooltips="1" connect="1" arrows="1" fold="1" page="1" pageScale="1" pageWidth="827" pageHeight="1169" math="0" shadow="0">
      <root>
        <mxCell id="WIyWlLk6GJQsqaUBKTNV-0" />
        <mxCell id="WIyWlLk6GJQsqaUBKTNV-1" parent="WIyWlLk6GJQsqaUBKTNV-0" />
        <mxCell id="dyt5749MMSVPC-hwdsBE-2" value="" style="edgeStyle=orthogonalEdgeStyle;rounded=0;orthogonalLoop=1;jettySize=auto;html=1;" edge="1" parent="WIyWlLk6GJQsqaUBKTNV-1" source="dyt5749MMSVPC-hwdsBE-0" target="dyt5749MMSVPC-hwdsBE-1">
          <mxGeometry relative="1" as="geometry" />
        </mxCell>
        <mxCell id="dyt5749MMSVPC-hwdsBE-0" value="start" style="ellipse;whiteSpace=wrap;html=1;" vertex="1" parent="WIyWlLk6GJQsqaUBKTNV-1">
          <mxGeometry x="170" y="30" width="80" height="50" as="geometry" />
        </mxCell>
        <mxCell id="dyt5749MMSVPC-hwdsBE-4" value="" style="edgeStyle=orthogonalEdgeStyle;rounded=0;orthogonalLoop=1;jettySize=auto;html=1;" edge="1" parent="WIyWlLk6GJQsqaUBKTNV-1" source="dyt5749MMSVPC-hwdsBE-1" target="dyt5749MMSVPC-hwdsBE-3">
          <mxGeometry relative="1" as="geometry" />
        </mxCell>
        <mxCell id="dyt5749MMSVPC-hwdsBE-1" value="int jam_alfa&lt;br&gt;double ketentuan_kompensasi = 2, keputusan_kompensasi&lt;br&gt;String[] tugas&lt;br&gt;int jmlTgs" style="shape=hexagon;perimeter=hexagonPerimeter2;whiteSpace=wrap;html=1;fixedSize=1;" vertex="1" parent="WIyWlLk6GJQsqaUBKTNV-1">
          <mxGeometry x="105" y="120" width="210" height="80" as="geometry" />
        </mxCell>
        <mxCell id="dyt5749MMSVPC-hwdsBE-6" value="" style="edgeStyle=orthogonalEdgeStyle;rounded=0;orthogonalLoop=1;jettySize=auto;html=1;" edge="1" parent="WIyWlLk6GJQsqaUBKTNV-1" source="dyt5749MMSVPC-hwdsBE-3" target="dyt5749MMSVPC-hwdsBE-5">
          <mxGeometry relative="1" as="geometry" />
        </mxCell>
        <mxCell id="dyt5749MMSVPC-hwdsBE-3" value="" style="ellipse;whiteSpace=wrap;html=1;" vertex="1" parent="WIyWlLk6GJQsqaUBKTNV-1">
          <mxGeometry x="185" y="240" width="50" height="50" as="geometry" />
        </mxCell>
        <mxCell id="dyt5749MMSVPC-hwdsBE-10" value="" style="edgeStyle=orthogonalEdgeStyle;rounded=0;orthogonalLoop=1;jettySize=auto;html=1;" edge="1" parent="WIyWlLk6GJQsqaUBKTNV-1" source="dyt5749MMSVPC-hwdsBE-5" target="dyt5749MMSVPC-hwdsBE-9">
          <mxGeometry relative="1" as="geometry" />
        </mxCell>
        <mxCell id="dyt5749MMSVPC-hwdsBE-5" value="jmlTgs = 0" style="whiteSpace=wrap;html=1;" vertex="1" parent="WIyWlLk6GJQsqaUBKTNV-1">
          <mxGeometry x="155" y="330" width="110" height="40" as="geometry" />
        </mxCell>
        <mxCell id="dyt5749MMSVPC-hwdsBE-12" value="" style="edgeStyle=orthogonalEdgeStyle;rounded=0;orthogonalLoop=1;jettySize=auto;html=1;" edge="1" parent="WIyWlLk6GJQsqaUBKTNV-1" source="dyt5749MMSVPC-hwdsBE-9" target="dyt5749MMSVPC-hwdsBE-11">
          <mxGeometry relative="1" as="geometry" />
        </mxCell>
        <mxCell id="dyt5749MMSVPC-hwdsBE-9" value="" style="ellipse;whiteSpace=wrap;html=1;" vertex="1" parent="WIyWlLk6GJQsqaUBKTNV-1">
          <mxGeometry x="185" y="410" width="50" height="50" as="geometry" />
        </mxCell>
        <mxCell id="dyt5749MMSVPC-hwdsBE-14" value="" style="edgeStyle=orthogonalEdgeStyle;rounded=0;orthogonalLoop=1;jettySize=auto;html=1;" edge="1" parent="WIyWlLk6GJQsqaUBKTNV-1" source="dyt5749MMSVPC-hwdsBE-11" target="dyt5749MMSVPC-hwdsBE-13">
          <mxGeometry relative="1" as="geometry" />
        </mxCell>
        <mxCell id="dyt5749MMSVPC-hwdsBE-41" value="true" style="edgeLabel;html=1;align=center;verticalAlign=middle;resizable=0;points=[];" vertex="1" connectable="0" parent="dyt5749MMSVPC-hwdsBE-14">
          <mxGeometry x="-0.228" y="-2" relative="1" as="geometry">
            <mxPoint as="offset" />
          </mxGeometry>
        </mxCell>
        <mxCell id="dyt5749MMSVPC-hwdsBE-25" style="edgeStyle=orthogonalEdgeStyle;rounded=0;orthogonalLoop=1;jettySize=auto;html=1;entryX=0;entryY=0.5;entryDx=0;entryDy=0;" edge="1" parent="WIyWlLk6GJQsqaUBKTNV-1" source="dyt5749MMSVPC-hwdsBE-11" target="dyt5749MMSVPC-hwdsBE-24">
          <mxGeometry relative="1" as="geometry">
            <Array as="points">
              <mxPoint x="40" y="545" />
              <mxPoint x="40" y="1100" />
            </Array>
          </mxGeometry>
        </mxCell>
        <mxCell id="dyt5749MMSVPC-hwdsBE-42" value="false" style="edgeLabel;html=1;align=center;verticalAlign=middle;resizable=0;points=[];" vertex="1" connectable="0" parent="dyt5749MMSVPC-hwdsBE-25">
          <mxGeometry x="-0.6458" y="-3" relative="1" as="geometry">
            <mxPoint as="offset" />
          </mxGeometry>
        </mxCell>
        <mxCell id="dyt5749MMSVPC-hwdsBE-11" value="jmlTgs &amp;lt; tugas.length" style="rhombus;whiteSpace=wrap;html=1;" vertex="1" parent="WIyWlLk6GJQsqaUBKTNV-1">
          <mxGeometry x="125" y="505" width="170" height="80" as="geometry" />
        </mxCell>
        <mxCell id="dyt5749MMSVPC-hwdsBE-16" value="" style="edgeStyle=orthogonalEdgeStyle;rounded=0;orthogonalLoop=1;jettySize=auto;html=1;" edge="1" parent="WIyWlLk6GJQsqaUBKTNV-1" source="dyt5749MMSVPC-hwdsBE-13" target="dyt5749MMSVPC-hwdsBE-15">
          <mxGeometry relative="1" as="geometry" />
        </mxCell>
        <mxCell id="dyt5749MMSVPC-hwdsBE-13" value="tugasBaru" style="shape=parallelogram;perimeter=parallelogramPerimeter;whiteSpace=wrap;html=1;fixedSize=1;" vertex="1" parent="WIyWlLk6GJQsqaUBKTNV-1">
          <mxGeometry x="150" y="630" width="120" height="60" as="geometry" />
        </mxCell>
        <mxCell id="dyt5749MMSVPC-hwdsBE-18" value="" style="edgeStyle=orthogonalEdgeStyle;rounded=0;orthogonalLoop=1;jettySize=auto;html=1;" edge="1" parent="WIyWlLk6GJQsqaUBKTNV-1" source="dyt5749MMSVPC-hwdsBE-15" target="dyt5749MMSVPC-hwdsBE-17">
          <mxGeometry relative="1" as="geometry" />
        </mxCell>
        <mxCell id="dyt5749MMSVPC-hwdsBE-40" value="true" style="edgeLabel;html=1;align=center;verticalAlign=middle;resizable=0;points=[];" vertex="1" connectable="0" parent="dyt5749MMSVPC-hwdsBE-18">
          <mxGeometry x="0.2504" y="-2" relative="1" as="geometry">
            <mxPoint as="offset" />
          </mxGeometry>
        </mxCell>
        <mxCell id="dyt5749MMSVPC-hwdsBE-20" value="" style="edgeStyle=orthogonalEdgeStyle;rounded=0;orthogonalLoop=1;jettySize=auto;html=1;" edge="1" parent="WIyWlLk6GJQsqaUBKTNV-1" source="dyt5749MMSVPC-hwdsBE-15" target="dyt5749MMSVPC-hwdsBE-19">
          <mxGeometry relative="1" as="geometry">
            <Array as="points">
              <mxPoint x="80" y="780" />
              <mxPoint x="80" y="1000" />
            </Array>
          </mxGeometry>
        </mxCell>
        <mxCell id="dyt5749MMSVPC-hwdsBE-38" value="false" style="edgeLabel;html=1;align=center;verticalAlign=middle;resizable=0;points=[];" vertex="1" connectable="0" parent="dyt5749MMSVPC-hwdsBE-20">
          <mxGeometry x="-0.4365" y="-1" relative="1" as="geometry">
            <mxPoint as="offset" />
          </mxGeometry>
        </mxCell>
        <mxCell id="dyt5749MMSVPC-hwdsBE-15" value="tugasBaru = selesai" style="rhombus;whiteSpace=wrap;html=1;" vertex="1" parent="WIyWlLk6GJQsqaUBKTNV-1">
          <mxGeometry x="122.5" y="740" width="175" height="80" as="geometry" />
        </mxCell>
        <mxCell id="dyt5749MMSVPC-hwdsBE-39" style="edgeStyle=orthogonalEdgeStyle;rounded=0;orthogonalLoop=1;jettySize=auto;html=1;entryX=1;entryY=0.5;entryDx=0;entryDy=0;" edge="1" parent="WIyWlLk6GJQsqaUBKTNV-1" source="dyt5749MMSVPC-hwdsBE-17" target="dyt5749MMSVPC-hwdsBE-34">
          <mxGeometry relative="1" as="geometry">
            <Array as="points">
              <mxPoint x="570" y="880" />
              <mxPoint x="570" y="1600" />
            </Array>
          </mxGeometry>
        </mxCell>
        <mxCell id="dyt5749MMSVPC-hwdsBE-17" value="break" style="whiteSpace=wrap;html=1;" vertex="1" parent="WIyWlLk6GJQsqaUBKTNV-1">
          <mxGeometry x="150" y="850" width="120" height="60" as="geometry" />
        </mxCell>
        <mxCell id="dyt5749MMSVPC-hwdsBE-22" value="" style="edgeStyle=orthogonalEdgeStyle;rounded=0;orthogonalLoop=1;jettySize=auto;html=1;" edge="1" parent="WIyWlLk6GJQsqaUBKTNV-1" source="dyt5749MMSVPC-hwdsBE-19" target="dyt5749MMSVPC-hwdsBE-21">
          <mxGeometry relative="1" as="geometry" />
        </mxCell>
        <mxCell id="dyt5749MMSVPC-hwdsBE-19" value="tugas[jmlTugas] = tugasBaru" style="whiteSpace=wrap;html=1;" vertex="1" parent="WIyWlLk6GJQsqaUBKTNV-1">
          <mxGeometry x="145" y="970" width="120" height="60" as="geometry" />
        </mxCell>
        <mxCell id="dyt5749MMSVPC-hwdsBE-23" style="edgeStyle=orthogonalEdgeStyle;rounded=0;orthogonalLoop=1;jettySize=auto;html=1;entryX=1;entryY=0.5;entryDx=0;entryDy=0;" edge="1" parent="WIyWlLk6GJQsqaUBKTNV-1" source="dyt5749MMSVPC-hwdsBE-21" target="dyt5749MMSVPC-hwdsBE-9">
          <mxGeometry relative="1" as="geometry">
            <Array as="points">
              <mxPoint x="405" y="435" />
            </Array>
          </mxGeometry>
        </mxCell>
        <mxCell id="dyt5749MMSVPC-hwdsBE-21" value="jmlTgs++" style="whiteSpace=wrap;html=1;" vertex="1" parent="WIyWlLk6GJQsqaUBKTNV-1">
          <mxGeometry x="345" y="970" width="120" height="60" as="geometry" />
        </mxCell>
        <mxCell id="dyt5749MMSVPC-hwdsBE-27" value="" style="edgeStyle=orthogonalEdgeStyle;rounded=0;orthogonalLoop=1;jettySize=auto;html=1;" edge="1" parent="WIyWlLk6GJQsqaUBKTNV-1" source="dyt5749MMSVPC-hwdsBE-24" target="dyt5749MMSVPC-hwdsBE-26">
          <mxGeometry relative="1" as="geometry" />
        </mxCell>
        <mxCell id="dyt5749MMSVPC-hwdsBE-24" value="jam-alfa" style="shape=parallelogram;perimeter=parallelogramPerimeter;whiteSpace=wrap;html=1;fixedSize=1;" vertex="1" parent="WIyWlLk6GJQsqaUBKTNV-1">
          <mxGeometry x="150" y="1070" width="120" height="60" as="geometry" />
        </mxCell>
        <mxCell id="dyt5749MMSVPC-hwdsBE-29" value="" style="edgeStyle=orthogonalEdgeStyle;rounded=0;orthogonalLoop=1;jettySize=auto;html=1;" edge="1" parent="WIyWlLk6GJQsqaUBKTNV-1" source="dyt5749MMSVPC-hwdsBE-26" target="dyt5749MMSVPC-hwdsBE-28">
          <mxGeometry relative="1" as="geometry" />
        </mxCell>
        <mxCell id="dyt5749MMSVPC-hwdsBE-26" value="keputusan_jam_kompensasi = jam_alfa * ketentuan_kompensasi;" style="whiteSpace=wrap;html=1;" vertex="1" parent="WIyWlLk6GJQsqaUBKTNV-1">
          <mxGeometry x="110" y="1180" width="200" height="70" as="geometry" />
        </mxCell>
        <mxCell id="dyt5749MMSVPC-hwdsBE-32" value="" style="edgeStyle=orthogonalEdgeStyle;rounded=0;orthogonalLoop=1;jettySize=auto;html=1;" edge="1" parent="WIyWlLk6GJQsqaUBKTNV-1" source="dyt5749MMSVPC-hwdsBE-28" target="dyt5749MMSVPC-hwdsBE-31">
          <mxGeometry relative="1" as="geometry" />
        </mxCell>
        <mxCell id="dyt5749MMSVPC-hwdsBE-28" value="keputusan jam kompensasi" style="shape=parallelogram;perimeter=parallelogramPerimeter;whiteSpace=wrap;html=1;fixedSize=1;" vertex="1" parent="WIyWlLk6GJQsqaUBKTNV-1">
          <mxGeometry x="150" y="1300" width="120" height="60" as="geometry" />
        </mxCell>
        <mxCell id="dyt5749MMSVPC-hwdsBE-33" style="edgeStyle=orthogonalEdgeStyle;rounded=0;orthogonalLoop=1;jettySize=auto;html=1;entryX=1;entryY=0.5;entryDx=0;entryDy=0;" edge="1" parent="WIyWlLk6GJQsqaUBKTNV-1" source="dyt5749MMSVPC-hwdsBE-31" target="dyt5749MMSVPC-hwdsBE-3">
          <mxGeometry relative="1" as="geometry">
            <Array as="points">
              <mxPoint x="530" y="1465" />
              <mxPoint x="530" y="265" />
            </Array>
          </mxGeometry>
        </mxCell>
        <mxCell id="dyt5749MMSVPC-hwdsBE-37" value="true" style="edgeLabel;html=1;align=center;verticalAlign=middle;resizable=0;points=[];" vertex="1" connectable="0" parent="dyt5749MMSVPC-hwdsBE-33">
          <mxGeometry x="-0.8746" y="-1" relative="1" as="geometry">
            <mxPoint as="offset" />
          </mxGeometry>
        </mxCell>
        <mxCell id="dyt5749MMSVPC-hwdsBE-35" value="" style="edgeStyle=orthogonalEdgeStyle;rounded=0;orthogonalLoop=1;jettySize=auto;html=1;" edge="1" parent="WIyWlLk6GJQsqaUBKTNV-1" source="dyt5749MMSVPC-hwdsBE-31" target="dyt5749MMSVPC-hwdsBE-34">
          <mxGeometry relative="1" as="geometry" />
        </mxCell>
        <mxCell id="dyt5749MMSVPC-hwdsBE-36" value="False" style="edgeLabel;html=1;align=center;verticalAlign=middle;resizable=0;points=[];" vertex="1" connectable="0" parent="dyt5749MMSVPC-hwdsBE-35">
          <mxGeometry x="-0.2648" y="2" relative="1" as="geometry">
            <mxPoint as="offset" />
          </mxGeometry>
        </mxCell>
        <mxCell id="dyt5749MMSVPC-hwdsBE-31" value="sc = Y" style="rhombus;whiteSpace=wrap;html=1;" vertex="1" parent="WIyWlLk6GJQsqaUBKTNV-1">
          <mxGeometry x="85" y="1420" width="250" height="90" as="geometry" />
        </mxCell>
        <mxCell id="dyt5749MMSVPC-hwdsBE-34" value="End" style="ellipse;whiteSpace=wrap;html=1;" vertex="1" parent="WIyWlLk6GJQsqaUBKTNV-1">
          <mxGeometry x="150" y="1560" width="120" height="80" as="geometry" />
        </mxCell>
      </root>
    </mxGraphModel>
  </diagram>
</mxfile>
